<svg xmlns="http://www.w3.org/2000/svg">
    <defs>
        <symbol id="eye"  viewBox="0 0 21 23">
            <path d="M19.0934 12.3685C19.0208 12.2595 17.2891 9.66988 14.8995 7.8998C13.6605 6.98038 12.0978 6.47438 10.5 6.47438C8.90314 6.47438 7.34039 6.98038 6.09876 7.8998C3.70914 9.66988 1.97926 12.2595 1.90664 12.3685C1.80483 12.5221 1.75027 12.7046 1.75027 12.8915C1.75027 13.0784 1.80483 13.2609 1.90664 13.4145C1.97926 13.5235 3.70914 16.1131 6.09876 17.8832C7.34039 18.8017 8.90314 19.3077 10.5 19.3077C12.0978 19.3077 13.6605 18.8017 14.8995 17.8823C17.2891 16.1122 19.0208 13.5226 19.0934 13.4135C19.1955 13.2603 19.2502 13.0779 19.2502 12.891C19.2502 12.7042 19.1955 12.5218 19.0934 12.3685ZM10.5 16.0994C8.80776 16.0994 7.43751 14.6602 7.43751 12.891C7.43751 11.1182 8.80776 9.68271 10.5 9.68271C12.1888 9.68271 13.5625 11.1182 13.5625 12.891C13.5625 14.6602 12.1888 16.0994 10.5 16.0994ZM12.25 12.891C12.25 13.9012 11.4643 14.7244 10.5 14.7244C10.1539 14.7244 9.81555 14.6169 9.52777 14.4154C9.23998 14.214 9.01568 13.9276 8.88322 13.5926C8.75077 13.2576 8.71612 12.889 8.78364 12.5334C8.85116 12.1777 9.01784 11.8511 9.26258 11.5947C9.50732 11.3383 9.81914 11.1637 10.1586 11.0929C10.4981 11.0222 10.8499 11.0585 11.1697 11.1973C11.4895 11.336 11.7628 11.571 11.9551 11.8725C12.1474 12.174 12.25 12.5284 12.25 12.891Z" 
            fill="currentColor"/>
        </symbol>
        <symbol id="eye-off" viewBox="0 0 20 21">
            <path d="M3.92258 3.71846C3.59714 3.39302 3.06951 3.39302 2.74406 3.71846C2.41863 4.0439 2.41863 4.57153 2.74406 4.89697L4.76421 6.91711C3.57198 7.81386 2.5327 9.04557 1.75463 10.6017C1.63733 10.8363 1.63733 11.1125 1.75463 11.347C3.55315 14.9441 6.74738 16.8077 9.99999 16.8077C11.296 16.8077 12.5827 16.5119 13.7755 15.9284L16.0774 18.2303C16.4028 18.5557 16.9305 18.5557 17.2559 18.2303C17.5813 17.9049 17.5813 17.3772 17.2559 17.0518L3.92258 3.71846ZM12.5115 14.6644C11.6952 14.9837 10.8445 15.141 9.99999 15.141C7.526 15.141 4.99837 13.7904 3.44137 10.9744C4.12266 9.74221 4.98981 8.79055 5.95697 8.10987L7.74363 9.89655C7.58745 10.2229 7.49999 10.5885 7.49999 10.9744C7.49999 12.3551 8.61924 13.4744 9.99999 13.4744C10.3859 13.4744 10.7515 13.387 11.0778 13.2307L12.5115 14.6644Z" 
                fill="currentColor"/>
            <path d="M15.4602 12.554C15.8627 12.0912 16.232 11.565 16.5586 10.9744C15.0016 8.15836 12.4739 6.80771 9.99999 6.80771C9.90666 6.80771 9.81324 6.80964 9.71974 6.81349L8.23282 5.32653C8.81449 5.20314 9.40624 5.14104 9.99999 5.14104C13.2526 5.14104 16.4468 7.00467 18.2453 10.6017C18.3627 10.8363 18.3627 11.1125 18.2453 11.347C17.792 12.2537 17.25 13.0502 16.6407 13.7345L15.4602 12.554Z" 
                fill="currentColor"/>
        </symbol>
        <symbol id="loading" viewBox="0 0 42 17">
            <style>
                .dot {
                animation: flow 1.6s linear infinite;
                transform-box: fill-box;
                transform-origin: center;
                }

                .dot:nth-child(1) {
                animation-delay: 0s;
                }

                .dot:nth-child(2) {
                animation-delay: 0.6s;
                }

                .dot:nth-child(3) {
                animation-delay: 1s;
                }

                @keyframes flow {
                0%   { opacity: 1; }
                33%  { opacity: 0.6; }
                66%  { opacity: 0.3; }
                100% { opacity: 1; }
                }
            </style>
            <circle class="dot" cx="9"  cy="8.5" r="3.5" fill="currentColor" />
            <circle class="dot" cx="21" cy="8.5" r="3.5" fill="currentColor" />
            <circle class="dot" cx="33" cy="8.5" r="3.5" fill="currentColor" />
        </symbol>
        <symbol id="close" viewBox="0 0 20 20" fill="none">
            <path d="M10 11.1667L5.91667 15.25C5.76389 15.4028 5.56944 15.4792 5.33333 15.4792C5.09722 15.4792 4.90278 15.4028 4.75 15.25C4.59722 15.0972 4.52083 14.9028 4.52083 14.6667C4.52083 14.4306 4.59722 14.2361 4.75 14.0833L8.83333 10L4.75 5.91666C4.59722 5.76388 4.52083 5.56944 4.52083 5.33333C4.52083 5.09722 4.59722 4.90277 4.75 4.74999C4.90278 4.59722 5.09722 4.52083 5.33333 4.52083C5.56944 4.52083 5.76389 4.59722 5.91667 4.74999L10 8.83333L14.0833 4.74999C14.2361 4.59722 14.4306 4.52083 14.6667 4.52083C14.9028 4.52083 15.0972 4.59722 15.25 4.74999C15.4028 4.90277 15.4792 5.09722 15.4792 5.33333C15.4792 5.56944 15.4028 5.76388 15.25 5.91666L11.1667 10L15.25 14.0833C15.4028 14.2361 15.4792 14.4306 15.4792 14.6667C15.4792 14.9028 15.4028 15.0972 15.25 15.25C15.0972 15.4028 14.9028 15.4792 14.6667 15.4792C14.4306 15.4792 14.2361 15.4028 14.0833 15.25L10 11.1667Z" 
            fill="currentColor"/>
        </symbol>
        <symbol id="language" viewBox="0 0 20 20" fill="none">
            <path d="M10 18.3333C8.86111 18.3333 7.78472 18.1144 6.77083 17.6767C5.75694 17.2389 4.87166 16.6417 4.115 15.885C3.35833 15.1283 2.76111 14.2431 2.32333 13.2292C1.88555 12.2153 1.66666 11.1389 1.66666 10C1.66666 8.84723 1.88555 7.7675 2.32333 6.76084C2.76111 5.75417 3.35833 4.87223 4.115 4.11501C4.87166 3.35778 5.75694 2.76056 6.77083 2.32334C7.78472 1.88612 8.86111 1.66723 10 1.66667C11.1528 1.66667 12.2328 1.88556 13.24 2.32334C14.2472 2.76112 15.1289 3.35834 15.885 4.11501C16.6411 4.87167 17.2383 5.75362 17.6767 6.76084C18.115 7.76806 18.3339 8.84778 18.3333 10C18.3333 11.1389 18.1144 12.2153 17.6767 13.2292C17.2389 14.2431 16.6417 15.1286 15.885 15.8858C15.1283 16.6431 14.2464 17.2403 13.2392 17.6775C12.2319 18.1147 11.1522 18.3333 10 18.3333ZM10 16.625C10.3611 16.125 10.6736 15.6042 10.9375 15.0625C11.2014 14.5208 11.4167 13.9444 11.5833 13.3333H8.41666C8.58333 13.9444 8.79861 14.5208 9.0625 15.0625C9.32639 15.6042 9.63889 16.125 10 16.625ZM7.83333 16.2917C7.58333 15.8333 7.36472 15.3575 7.1775 14.8642C6.99027 14.3708 6.83389 13.8606 6.70833 13.3333H4.25C4.65278 14.0278 5.15639 14.6319 5.76083 15.1458C6.36528 15.6597 7.05611 16.0417 7.83333 16.2917ZM12.1667 16.2917C12.9444 16.0417 13.6356 15.6597 14.24 15.1458C14.8444 14.6319 15.3478 14.0278 15.75 13.3333H13.2917C13.1667 13.8611 13.0106 14.3717 12.8233 14.865C12.6361 15.3583 12.4172 15.8339 12.1667 16.2917ZM3.54166 11.6667H6.375C6.33333 11.3889 6.30222 11.1147 6.28166 10.8442C6.26111 10.5736 6.25055 10.2922 6.25 10C6.24944 9.70778 6.26 9.42667 6.28166 9.15667C6.30333 8.88667 6.33444 8.61223 6.375 8.33334H3.54166C3.47222 8.61112 3.42028 8.88556 3.38583 9.15667C3.35139 9.42778 3.33389 9.70889 3.33333 10C3.33278 10.2911 3.35028 10.5725 3.38583 10.8442C3.42139 11.1158 3.47333 11.39 3.54166 11.6667ZM8.04166 11.6667H11.9583C12 11.3889 12.0314 11.1147 12.0525 10.8442C12.0736 10.5736 12.0839 10.2922 12.0833 10C12.0828 9.70778 12.0722 9.42667 12.0517 9.15667C12.0311 8.88667 12 8.61223 11.9583 8.33334H8.04166C8 8.61112 7.96889 8.88556 7.94833 9.15667C7.92778 9.42778 7.91722 9.70889 7.91666 10C7.91611 10.2911 7.92666 10.5725 7.94833 10.8442C7.97 11.1158 8.00111 11.39 8.04166 11.6667ZM13.625 11.6667H16.4583C16.5278 11.3889 16.58 11.1147 16.615 10.8442C16.65 10.5736 16.6672 10.2922 16.6667 10C16.6661 9.70778 16.6489 9.42667 16.615 9.15667C16.5811 8.88667 16.5289 8.61223 16.4583 8.33334H13.625C13.6667 8.61112 13.6981 8.88556 13.7192 9.15667C13.7403 9.42778 13.7506 9.70889 13.75 10C13.7494 10.2911 13.7389 10.5725 13.7183 10.8442C13.6978 11.1158 13.6667 11.39 13.625 11.6667ZM13.2917 6.66667H15.75C15.3472 5.97223 14.8439 5.36806 14.24 4.85417C13.6361 4.34028 12.945 3.95834 12.1667 3.70834C12.4167 4.16667 12.6356 4.64251 12.8233 5.13584C13.0111 5.62917 13.1672 6.13945 13.2917 6.66667ZM8.41666 6.66667H11.5833C11.4167 6.05556 11.2014 5.47917 10.9375 4.93751C10.6736 4.39584 10.3611 3.87501 10 3.37501C9.63889 3.87501 9.32639 4.39584 9.0625 4.93751C8.79861 5.47917 8.58333 6.05556 8.41666 6.66667ZM4.25 6.66667H6.70833C6.83333 6.13889 6.98972 5.62834 7.1775 5.13501C7.36527 4.64167 7.58389 4.16612 7.83333 3.70834C7.05555 3.95834 6.36444 4.34028 5.76 4.85417C5.15555 5.36806 4.65222 5.97223 4.25 6.66667Z" 
            fill="currentColor"/>
        </symbol>
        <symbol id="selectArrow" viewBox='0 0 24 24'>
            <path fill="currentColor" 
            d='M7.41 8.59 12 13.17l4.59-4.58L18 10l-6 6-6-6z'/>
        </symbol>
        <symbol id="hamburger" viewBox="0 0 18 14" fill="none">
            <rect width="18" height="2.33333" fill="currentColor"/>
            <rect y="5.8333" width="18" height="2.33333" fill="currentColor"/>
            <rect y="11.6667" width="18" height="2.33333" fill="currentColor"/>
        </symbol>
        <symbol id="bell" viewBox="0 0 19 20" fill="none">
            <path d="M10.7041 17.0381C11.0061 17.0381 11.2962 17.1549 11.5098 17.3633C11.7233 17.5717 11.8438 17.8547 11.8438 18.1494C11.8436 18.4439 11.7232 18.7263 11.5098 18.9346C11.2962 19.1429 11.0061 19.2598 10.7041 19.2598H7.66797C7.36595 19.2598 7.07587 19.1429 6.8623 18.9346C6.64895 18.7263 6.52942 18.4439 6.5293 18.1494C6.5293 17.8548 6.64882 17.5716 6.8623 17.3633C7.07587 17.1549 7.36595 17.0381 7.66797 17.0381H10.7041ZM9.38477 0.00488281C9.4541 0.00679176 9.52347 0.00779296 9.59277 0.0117188C9.64854 0.0149135 9.70409 0.0208921 9.75977 0.0253906C9.84049 0.0318615 9.9214 0.0366792 10.002 0.0458984C10.0402 0.0502974 10.0781 0.0574841 10.1162 0.0625C10.2061 0.0742612 10.2962 0.0853843 10.3857 0.100586C11.4608 0.283095 12.4773 0.70913 13.3535 1.34375C14.2297 1.97836 14.9414 2.80467 15.4316 3.75586C15.9218 4.70695 16.1771 5.75673 16.1768 6.82129V11.8184C16.1768 11.955 16.2043 12.0891 16.2568 12.2129L16.3018 12.3037C16.3117 12.3218 16.323 12.339 16.334 12.3564C16.3769 12.4246 16.4264 12.4894 16.4854 12.5469C16.5843 12.6434 16.7014 12.7183 16.8281 12.7695C16.9562 12.8213 17.0938 12.8486 17.2324 12.8486C17.5343 12.8487 17.8236 12.9655 18.0371 13.1738C18.2506 13.3821 18.371 13.6644 18.3711 13.959C18.3711 14.2537 18.2507 14.5367 18.0371 14.7451C17.8237 14.9533 17.5342 15.0702 17.2324 15.0703H1.13867C0.836823 15.0703 0.547494 14.9533 0.333984 14.7451C0.120422 14.5367 0 14.2537 0 13.959C9.1855e-05 13.6644 0.120504 13.3821 0.333984 13.1738C0.547508 12.9656 0.836753 12.8487 1.13867 12.8486C1.24273 12.8486 1.3461 12.8331 1.44531 12.8037L1.54297 12.7695C1.66954 12.7183 1.78597 12.6432 1.88477 12.5469C2.08267 12.3538 2.19434 12.0914 2.19434 11.8184V6.82129C2.19401 5.75668 2.44926 4.70698 2.93945 3.75586C3.42973 2.80462 4.14134 1.97837 5.01758 1.34375C5.87654 0.72166 6.87028 0.301565 7.92188 0.113281C7.934 0.111103 7.94588 0.107584 7.95801 0.105469C7.96703 0.103901 7.97632 0.10212 7.98535 0.100586C8.07231 0.0858271 8.15978 0.0749908 8.24707 0.0634766C8.2875 0.0581178 8.32766 0.0505643 8.36816 0.0458984C8.44871 0.0366718 8.52963 0.0318689 8.61035 0.0253906C8.66602 0.0208869 8.72158 0.0149187 8.77734 0.0117188C8.84697 0.00776804 8.91667 0.00679774 8.98633 0.00488281C9.0472 0.00317062 9.10803 0.000159372 9.16895 0H9.20215C9.26306 0.000161967 9.3239 0.00316803 9.38477 0.00488281Z" 
            fill="currentColor"/>
        </symbol>
        <symbol id="bell-active" viewBox="0 0 20 20" fill="none">
            <path fill-rule="evenodd" clip-rule="evenodd" d="M7.98512 0.840863C9.06023 0.658355 10.1642 0.724018 11.2086 1.03259C10.7342 1.87681 10.4927 2.82685 10.508 3.78955C10.5232 4.75224 10.7946 5.69455 11.2955 6.52407C11.7965 7.35359 12.5098 8.04185 13.3655 8.52135C14.2212 9.00084 15.19 9.25513 16.1767 9.25926V12.5585C16.1767 12.8316 16.2879 13.0935 16.4858 13.2866C16.6837 13.4797 16.9521 13.5881 17.232 13.5881C17.534 13.5881 17.8237 13.7052 18.0372 13.9136C18.2508 14.122 18.3708 14.4046 18.3708 14.6993C18.3708 14.9939 18.2508 15.2766 18.0372 15.4849C17.8237 15.6933 17.534 15.8104 17.232 15.8104H1.13878C0.836756 15.8104 0.547103 15.6933 0.333541 15.4849C0.119978 15.2766 0 14.9939 0 14.6993C0 14.4046 0.119978 14.122 0.333541 13.9136C0.547103 13.7052 0.836756 13.5881 1.13878 13.5881C1.27736 13.5881 1.41458 13.5615 1.54261 13.5098C1.67064 13.458 1.78698 13.3822 1.88497 13.2866C1.98296 13.191 2.06069 13.0775 2.11372 12.9525C2.16675 12.8276 2.19405 12.6937 2.19405 12.5585V7.56148C2.19368 6.49674 2.44886 5.4467 2.93913 4.49546C3.42941 3.54423 4.14117 2.71822 5.0174 2.0836C5.89364 1.44898 6.91001 1.02337 7.98512 0.840863ZM6.86254 18.1032C6.64898 18.3116 6.529 18.5942 6.529 18.8889C6.529 19.1836 6.64898 19.4662 6.86254 19.6746C7.0761 19.8829 7.36576 20 7.66778 20H10.7045C11.0065 20 11.2962 19.8829 11.5098 19.6746C11.7233 19.4662 11.8433 19.1836 11.8433 18.8889C11.8433 18.5942 11.7233 18.3116 11.5098 18.1032C11.2962 17.8948 11.0065 17.7778 10.7045 17.7778H7.66778C7.36576 17.7778 7.0761 17.8948 6.86254 18.1032Z" 
            fill="currentColor"/>
            <path d="M20 3.7037C20 4.68599 19.6001 5.62804 18.8882 6.32262C18.1763 7.0172 17.2108 7.40741 16.2041 7.40741C15.1973 7.40741 14.2318 7.0172 13.5199 6.32262C12.8081 5.62804 12.4081 4.68599 12.4081 3.7037C12.4081 2.72142 12.8081 1.77937 13.5199 1.08479C14.2318 0.39021 15.1973 0 16.2041 0C17.2108 0 18.1763 0.39021 18.8882 1.08479C19.6001 1.77937 20 2.72142 20 3.7037Z" 
            fill="var(--color-red)"/>
        </symbol>
        <symbol id="logout" viewBox="0 0 17 17" fill="none">
            <path fill-opacity="0.5" d="M8 16.6667C5.87827 16.6667 3.84344 15.7887 2.34315 14.2259C0.842855 12.6631 0 10.5435 0 8.33333C0 6.1232 0.842855 4.00358 2.34315 2.44078C3.84344 0.877974 5.87827 0 8 0V16.6667Z" 
            fill="currentColor"/>
            <path fill-rule="evenodd" clip-rule="evenodd" d="M12.47 4.65625C12.3295 4.80273 12.2507 5.0013 12.2507 5.20833C12.2507 5.41536 12.3295 5.61393 12.47 5.76041L14.19 7.55208H6C5.80109 7.55208 5.61032 7.63439 5.46967 7.7809C5.32902 7.92742 5.25 8.12613 5.25 8.33333C5.25 8.54053 5.32902 8.73925 5.46967 8.88576C5.61032 9.03227 5.80109 9.11458 6 9.11458H14.19L12.47 10.9062C12.3963 10.9778 12.3372 11.064 12.2962 11.1599C12.2552 11.2557 12.2332 11.3591 12.2314 11.464C12.2296 11.5689 12.2482 11.6731 12.2859 11.7704C12.3236 11.8677 12.3797 11.9561 12.451 12.0302C12.5222 12.1044 12.607 12.1629 12.7004 12.2022C12.7938 12.2415 12.8938 12.2608 12.9945 12.2589C13.0952 12.2571 13.1945 12.2341 13.2865 12.1914C13.3785 12.1487 13.4613 12.0872 13.53 12.0104L16.53 8.88541C16.6705 8.73893 16.7493 8.54036 16.7493 8.33333C16.7493 8.1263 16.6705 7.92773 16.53 7.78125L13.53 4.65625C13.3894 4.50995 13.1988 4.42777 13 4.42777C12.8012 4.42777 12.6106 4.50995 12.47 4.65625Z" 
            fill="currentColor"/>
        </symbol>
        <symbol id="home" viewBox="0 0 15 16" fill="none">
            <path d="M8.30766 0.397161C8.02186 0.141455 7.65121 0 7.267 0C6.88278 0 6.51214 0.141455 6.22633 0.397161L0.516958 5.50579C0.354439 5.65106 0.224425 5.82875 0.135363 6.02732C0.0463003 6.2259 0.000180883 6.4409 0 6.65838V13.9512C0 14.3625 0.164051 14.7569 0.456065 15.0477C0.748078 15.3385 1.14413 15.5018 1.5571 15.5018H3.63324C4.04621 15.5018 4.44226 15.3385 4.73428 15.0477C5.02629 14.7569 5.19034 14.3625 5.19034 13.9512V9.81638C5.19034 9.6793 5.24503 9.54784 5.34236 9.45091C5.4397 9.35398 5.57172 9.29952 5.70938 9.29952H8.82358C8.96124 9.29952 9.09326 9.35398 9.19059 9.45091C9.28793 9.54784 9.34262 9.6793 9.34262 9.81638V13.9512C9.34262 14.3625 9.50667 14.7569 9.79868 15.0477C10.0907 15.3385 10.4867 15.5018 10.8997 15.5018H12.9759C13.3888 15.5018 13.7849 15.3385 14.0769 15.0477C14.3689 14.7569 14.533 14.3625 14.533 13.9512V6.65838C14.5329 6.44098 14.487 6.22602 14.3981 6.02745C14.3092 5.82889 14.1794 5.65115 14.017 5.50579L8.30766 0.397161Z" 
            fill="currentColor"/>
        </symbol>
        <symbol id ="user" viewBox="0 0 22 23" fill="none">
            <path d="M11 10.0784C13.2474 10.0784 15.0693 8.1737 15.0693 5.82413C15.0693 3.47457 13.2474 1.56987 11 1.56987C8.75258 1.56987 6.93069 3.47457 6.93069 5.82413C6.93069 8.1737 8.75258 10.0784 11 10.0784Z" 
            fill="currentColor"/>
            <path fill-opacity="0.5" 
                d="M19.1386 16.6441C19.1386 19.2871 19.1386 21.4301 11 21.4301C2.86142 21.4301 2.86142 19.2871 2.86142 16.6441C2.86142 14.0011 6.50547 11.858 11 11.858C15.4945 11.858 19.1386 14.0011 19.1386 16.6441Z" 
            fill="currentColor"/>
        </symbol>
        <symbol id="contact" viewBox="0 0 15 19" fill="none">
            <path d="M0 2.29167C0 1.68388 0.241443 1.10098 0.671214 0.671214C1.10098 0.241443 1.68388 0 2.29167 0H12.375C12.9828 0 13.5657 0.241443 13.9955 0.671214C14.4252 1.10098 14.6667 1.68388 14.6667 2.29167V15.3542C14.6667 15.5365 14.5942 15.7114 14.4653 15.8403C14.3364 15.9692 14.1615 16.0417 13.9792 16.0417H1.375C1.375 16.2848 1.47158 16.5179 1.64349 16.6898C1.81539 16.8618 2.04855 16.9583 2.29167 16.9583H13.9792C14.1615 16.9583 14.3364 17.0308 14.4653 17.1597C14.5942 17.2886 14.6667 17.4635 14.6667 17.6458C14.6667 17.8282 14.5942 18.003 14.4653 18.132C14.3364 18.2609 14.1615 18.3333 13.9792 18.3333H2.29167C1.68388 18.3333 1.10098 18.0919 0.671214 17.6621C0.241443 17.2323 0 16.6495 0 16.0417V2.29167ZM9.16667 5.5C9.16667 5.01377 8.97351 4.54745 8.6297 4.20364C8.28588 3.85982 7.81956 3.66667 7.33333 3.66667C6.8471 3.66667 6.38079 3.85982 6.03697 4.20364C5.69315 4.54745 5.5 5.01377 5.5 5.5C5.5 5.98623 5.69315 6.45255 6.03697 6.79636C6.38079 7.14018 6.8471 7.33333 7.33333 7.33333C7.81956 7.33333 8.28588 7.14018 8.6297 6.79636C8.97351 6.45255 9.16667 5.98623 9.16667 5.5ZM10.5417 9.625C10.5417 9.26033 10.3968 8.91059 10.1389 8.65273C9.88108 8.39487 9.53134 8.25 9.16667 8.25H5.5C5.13533 8.25 4.78559 8.39487 4.52773 8.65273C4.26987 8.91059 4.125 9.26033 4.125 9.625C4.125 10.7708 5.04167 11.9167 7.33333 11.9167C9.625 11.9167 10.5417 10.7663 10.5417 9.625Z" 
            fill="currentColor"/>
        </symbol>
        <symbol id="chat" viewBox="0 0 15 15" fill="none">
            <path fill-rule="evenodd" clip-rule="evenodd" d="M7.33301 0C5.38817 2.89803e-08 3.52299 0.772582 2.14779 2.14779C0.772583 3.52299 0 5.38817 0 7.33301C0 9.27784 0.772583 11.143 2.14779 12.5182C3.52299 13.8934 5.38817 14.666 7.33301 14.666H10.9995C12.1386 14.666 12.7081 14.666 13.157 14.4802C13.4537 14.3574 13.7232 14.1773 13.9503 13.9503C14.1773 13.7232 14.3574 13.4537 14.4802 13.157C14.666 12.7081 14.666 12.1386 14.666 10.9995V7.33301C14.666 5.38817 13.8934 3.52299 12.5182 2.14779C11.143 0.772582 9.27784 0 7.33301 0ZM4.07389 6.51823C4.07389 6.30214 4.15974 6.09489 4.31254 5.94209C4.46534 5.78929 4.67258 5.70345 4.88867 5.70345H9.77734C9.99344 5.70345 10.2007 5.78929 10.3535 5.94209C10.5063 6.09489 10.5921 6.30214 10.5921 6.51823C10.5921 6.73432 10.5063 6.94156 10.3535 7.09436C10.2007 7.24717 9.99344 7.33301 9.77734 7.33301H4.88867C4.67258 7.33301 4.46534 7.24717 4.31254 7.09436C4.15974 6.94156 4.07389 6.73432 4.07389 6.51823ZM6.51823 9.77734C6.51823 9.56125 6.60407 9.35401 6.75687 9.20121C6.90967 9.04841 7.11691 8.96256 7.33301 8.96256H9.77734C9.99344 8.96256 10.2007 9.04841 10.3535 9.20121C10.5063 9.35401 10.5921 9.56125 10.5921 9.77734C10.5921 9.99344 10.5063 10.2007 10.3535 10.3535C10.2007 10.5063 9.99344 10.5921 9.77734 10.5921H7.33301C7.11691 10.5921 6.90967 10.5063 6.75687 10.3535C6.60407 10.2007 6.51823 9.99344 6.51823 9.77734Z" 
            fill="currentColor"/>
        </symbol>
        <symbol id="add-btn" viewBox="0 0 19 19" fill="none">
            <path d="M9.375 18.75C14.5527 18.75 18.75 14.5527 18.75 9.375C18.75 4.19733 14.5527 0 9.375 0C4.19733 0 0 4.19733 0 9.375C0 14.5527 4.19733 18.75 9.375 18.75Z" 
            fill="currentColor" fill-opacity="0.3"/>
            <path d="M9.37501 5.20834V13.5417M13.5417 9.37501H5.20834" 
            stroke="currentColor" stroke-linecap="square" stroke-linejoin="round"/>
        </symbol>
        <symbol id="refresh" viewBox="0 0 17 16" fill="none">
            <path d="M15.8333 7.05997C15.6123 7.05997 15.4004 7.14261 15.2441 7.28969C15.0878 7.43678 15 7.63627 15 7.84429C15.0099 9.31333 14.4752 10.7396 13.488 11.8776C12.5009 13.0155 11.1229 13.7938 9.59164 14.0785C8.06033 14.3631 6.47149 14.1363 5.09875 13.4371C3.72602 12.7378 2.65534 11.6099 2.0711 10.2476C1.48687 8.88534 1.42566 7.37395 1.89802 5.97376C2.37037 4.57357 3.34673 3.37224 4.65892 2.57666C5.97111 1.78109 7.537 1.44108 9.08689 1.6152C10.6368 1.78931 12.0736 2.46665 13.15 3.53056H11.15C10.929 3.53056 10.717 3.61319 10.5607 3.76028C10.4045 3.90737 10.3167 4.10686 10.3167 4.31487C10.3167 4.52289 10.4045 4.72238 10.5607 4.86947C10.717 5.01656 10.929 5.09919 11.15 5.09919H14.925C15.146 5.09919 15.358 5.01656 15.5143 4.86947C15.6705 4.72238 15.7583 4.52289 15.7583 4.31487V0.785463C15.7583 0.57745 15.6705 0.377956 15.5143 0.230869C15.358 0.0837815 15.146 0.00114866 14.925 0.00114866C14.704 0.00114866 14.492 0.0837815 14.3357 0.230869C14.1795 0.377956 14.0917 0.57745 14.0917 0.785463V2.1737C12.7039 0.925116 10.9006 0.165817 8.98668 0.0241519C7.07274 -0.117514 5.16553 0.367144 3.58744 1.3962C2.00934 2.42526 0.857177 3.93559 0.325693 5.67189C-0.205791 7.40819 -0.0839892 9.26395 0.670509 10.9255C1.42501 12.587 2.76592 13.9524 4.46658 14.7908C6.16725 15.6293 8.12334 15.8893 10.0042 15.527C11.8851 15.1647 13.5753 14.2023 14.7893 12.8025C16.0032 11.4026 16.6664 9.65121 16.6667 7.84429C16.6667 7.63627 16.5789 7.43678 16.4226 7.28969C16.2663 7.14261 16.0543 7.05997 15.8333 7.05997Z" 
            fill="currentColor"/>
        </symbol>
        <symbol id="forwarding" viewBox="0 0 15 15" fill="none">
            <path fill-rule="evenodd" clip-rule="evenodd" d="M14.0323 1.84312C14.0689 1.7215 14.0718 1.59225 14.0407 1.46911C14.0097 1.34597 13.9459 1.23353 13.8561 1.14374C13.7663 1.05394 13.6539 0.990142 13.5307 0.959112C13.4076 0.928081 13.2783 0.93098 13.1567 0.967499L1.43797 4.48312C1.30844 4.52211 1.19291 4.59763 1.10523 4.70063C1.01755 4.80363 0.961436 4.92973 0.943623 5.06382C0.925811 5.19791 0.947054 5.33429 1.0048 5.4566C1.06256 5.57892 1.15436 5.68199 1.26922 5.75344L5.57984 8.42812L3.95703 10.05C3.88984 10.1148 3.83624 10.1924 3.79935 10.2782C3.76246 10.3639 3.74302 10.4562 3.74217 10.5495C3.74131 10.6429 3.75906 10.7355 3.79437 10.8219C3.82969 10.9083 3.88186 10.9869 3.94784 11.0529C4.01383 11.119 4.09231 11.1712 4.17871 11.2066C4.2651 11.242 4.35768 11.2598 4.45104 11.2591C4.5444 11.2583 4.63667 11.239 4.72247 11.2021C4.80827 11.1653 4.88589 11.1118 4.95078 11.0447L6.57359 9.42281L9.24734 13.7306C9.31879 13.8455 9.42186 13.9373 9.54417 13.995C9.66649 14.0528 9.80287 14.074 9.93696 14.0562C10.071 14.0384 10.1972 13.9823 10.3001 13.8946C10.4031 13.8069 10.4787 13.6914 10.5177 13.5619L14.0323 1.84312ZM7.59453 8.4L9.61859 11.6625L11.8845 4.11L7.59453 8.4ZM10.8898 3.11531L3.33734 5.38125L6.59984 7.40625L10.8898 3.11531Z" 
            fill="currentColor"/>
        </symbol>
        <symbol id="company" viewBox="0 0 15 19" fill="none">
            <path d="M7.50001 7.49999H7.50834M7.50001 10.8333H7.50834M7.50001 4.16666H7.50834M10.8333 7.49999H10.8417M10.8333 10.8333H10.8417M10.8333 4.16666H10.8417M4.16667 7.49999H4.17501M4.16667 10.8333H4.17501M4.16667 4.16666H4.17501M5.00001 17.5V15C5.00001 14.779 5.0878 14.567 5.24408 14.4107C5.40036 14.2545 5.61232 14.1667 5.83334 14.1667H9.16667C9.38769 14.1667 9.59965 14.2545 9.75593 14.4107C9.91221 14.567 10 14.779 10 15V17.5" 
            stroke="currentColor" stroke-width="1.66667" stroke-linecap="round" stroke-linejoin="round"/>
            <path d="M12.5 0.833328H2.5C1.57953 0.833328 0.833336 1.57952 0.833336 2.49999V15.8333C0.833336 16.7538 1.57953 17.5 2.5 17.5H12.5C13.4205 17.5 14.1667 16.7538 14.1667 15.8333V2.49999C14.1667 1.57952 13.4205 0.833328 12.5 0.833328Z" 
            stroke="currentColor" stroke-width="1.66667" stroke-linecap="round" stroke-linejoin="round"/>
        </symbol>
    </defs>
</svg>