<svg xmlns="http://www.w3.org/2000/svg">
    <defs>
        <symbol id="eye"  viewBox="0 0 21 23">
            <path d="M19.0934 12.3685C19.0208 12.2595 17.2891 9.66988 14.8995 7.8998C13.6605 6.98038 12.0978 6.47438 10.5 6.47438C8.90314 6.47438 7.34039 6.98038 6.09876 7.8998C3.70914 9.66988 1.97926 12.2595 1.90664 12.3685C1.80483 12.5221 1.75027 12.7046 1.75027 12.8915C1.75027 13.0784 1.80483 13.2609 1.90664 13.4145C1.97926 13.5235 3.70914 16.1131 6.09876 17.8832C7.34039 18.8017 8.90314 19.3077 10.5 19.3077C12.0978 19.3077 13.6605 18.8017 14.8995 17.8823C17.2891 16.1122 19.0208 13.5226 19.0934 13.4135C19.1955 13.2603 19.2502 13.0779 19.2502 12.891C19.2502 12.7042 19.1955 12.5218 19.0934 12.3685ZM10.5 16.0994C8.80776 16.0994 7.43751 14.6602 7.43751 12.891C7.43751 11.1182 8.80776 9.68271 10.5 9.68271C12.1888 9.68271 13.5625 11.1182 13.5625 12.891C13.5625 14.6602 12.1888 16.0994 10.5 16.0994ZM12.25 12.891C12.25 13.9012 11.4643 14.7244 10.5 14.7244C10.1539 14.7244 9.81555 14.6169 9.52777 14.4154C9.23998 14.214 9.01568 13.9276 8.88322 13.5926C8.75077 13.2576 8.71612 12.889 8.78364 12.5334C8.85116 12.1777 9.01784 11.8511 9.26258 11.5947C9.50732 11.3383 9.81914 11.1637 10.1586 11.0929C10.4981 11.0222 10.8499 11.0585 11.1697 11.1973C11.4895 11.336 11.7628 11.571 11.9551 11.8725C12.1474 12.174 12.25 12.5284 12.25 12.891Z" 
            fill="currentColor"/>
        </symbol>
        <symbol id="eye-off" viewBox="0 0 20 21">
            <path d="M3.92258 3.71846C3.59714 3.39302 3.06951 3.39302 2.74406 3.71846C2.41863 4.0439 2.41863 4.57153 2.74406 4.89697L4.76421 6.91711C3.57198 7.81386 2.5327 9.04557 1.75463 10.6017C1.63733 10.8363 1.63733 11.1125 1.75463 11.347C3.55315 14.9441 6.74738 16.8077 9.99999 16.8077C11.296 16.8077 12.5827 16.5119 13.7755 15.9284L16.0774 18.2303C16.4028 18.5557 16.9305 18.5557 17.2559 18.2303C17.5813 17.9049 17.5813 17.3772 17.2559 17.0518L3.92258 3.71846ZM12.5115 14.6644C11.6952 14.9837 10.8445 15.141 9.99999 15.141C7.526 15.141 4.99837 13.7904 3.44137 10.9744C4.12266 9.74221 4.98981 8.79055 5.95697 8.10987L7.74363 9.89655C7.58745 10.2229 7.49999 10.5885 7.49999 10.9744C7.49999 12.3551 8.61924 13.4744 9.99999 13.4744C10.3859 13.4744 10.7515 13.387 11.0778 13.2307L12.5115 14.6644Z" 
                fill="currentColor"/>
            <path d="M15.4602 12.554C15.8627 12.0912 16.232 11.565 16.5586 10.9744C15.0016 8.15836 12.4739 6.80771 9.99999 6.80771C9.90666 6.80771 9.81324 6.80964 9.71974 6.81349L8.23282 5.32653C8.81449 5.20314 9.40624 5.14104 9.99999 5.14104C13.2526 5.14104 16.4468 7.00467 18.2453 10.6017C18.3627 10.8363 18.3627 11.1125 18.2453 11.347C17.792 12.2537 17.25 13.0502 16.6407 13.7345L15.4602 12.554Z" 
                fill="currentColor"/>
        </symbol>
        <symbol id="loading" viewBox="0 0 42 17">
            <style>
                .dot {
                animation: flow 1.6s linear infinite;
                transform-box: fill-box;
                transform-origin: center;
                }

                .dot:nth-child(1) {
                animation-delay: 0s;
                }

                .dot:nth-child(2) {
                animation-delay: 0.6s;
                }

                .dot:nth-child(3) {
                animation-delay: 1s;
                }

                @keyframes flow {
                0%   { opacity: 1; }
                33%  { opacity: 0.6; }
                66%  { opacity: 0.3; }
                100% { opacity: 1; }
                }
            </style>
            <circle class="dot" cx="9"  cy="8.5" r="3.5" fill="currentColor" />
            <circle class="dot" cx="21" cy="8.5" r="3.5" fill="currentColor" />
            <circle class="dot" cx="33" cy="8.5" r="3.5" fill="currentColor" />
        </symbol>
        <symbol>
        </symbol>
    </defs>
</svg>