<svg xmlns="http://www.w3.org/2000/svg">
    <defs>
        <symbol id="eye"  viewBox="0 0 21 23">
            <path d="M19.0934 12.3685C19.0208 12.2595 17.2891 9.66988 14.8995 7.8998C13.6605 6.98038 12.0978 6.47438 10.5 6.47438C8.90314 6.47438 7.34039 6.98038 6.09876 7.8998C3.70914 9.66988 1.97926 12.2595 1.90664 12.3685C1.80483 12.5221 1.75027 12.7046 1.75027 12.8915C1.75027 13.0784 1.80483 13.2609 1.90664 13.4145C1.97926 13.5235 3.70914 16.1131 6.09876 17.8832C7.34039 18.8017 8.90314 19.3077 10.5 19.3077C12.0978 19.3077 13.6605 18.8017 14.8995 17.8823C17.2891 16.1122 19.0208 13.5226 19.0934 13.4135C19.1955 13.2603 19.2502 13.0779 19.2502 12.891C19.2502 12.7042 19.1955 12.5218 19.0934 12.3685ZM10.5 16.0994C8.80776 16.0994 7.43751 14.6602 7.43751 12.891C7.43751 11.1182 8.80776 9.68271 10.5 9.68271C12.1888 9.68271 13.5625 11.1182 13.5625 12.891C13.5625 14.6602 12.1888 16.0994 10.5 16.0994ZM12.25 12.891C12.25 13.9012 11.4643 14.7244 10.5 14.7244C10.1539 14.7244 9.81555 14.6169 9.52777 14.4154C9.23998 14.214 9.01568 13.9276 8.88322 13.5926C8.75077 13.2576 8.71612 12.889 8.78364 12.5334C8.85116 12.1777 9.01784 11.8511 9.26258 11.5947C9.50732 11.3383 9.81914 11.1637 10.1586 11.0929C10.4981 11.0222 10.8499 11.0585 11.1697 11.1973C11.4895 11.336 11.7628 11.571 11.9551 11.8725C12.1474 12.174 12.25 12.5284 12.25 12.891Z" 
            fill="currentColor"/>
        </symbol>
        <symbol id="eye-off" viewBox="0 0 20 21">
            <path d="M3.92258 3.71846C3.59714 3.39302 3.06951 3.39302 2.74406 3.71846C2.41863 4.0439 2.41863 4.57153 2.74406 4.89697L4.76421 6.91711C3.57198 7.81386 2.5327 9.04557 1.75463 10.6017C1.63733 10.8363 1.63733 11.1125 1.75463 11.347C3.55315 14.9441 6.74738 16.8077 9.99999 16.8077C11.296 16.8077 12.5827 16.5119 13.7755 15.9284L16.0774 18.2303C16.4028 18.5557 16.9305 18.5557 17.2559 18.2303C17.5813 17.9049 17.5813 17.3772 17.2559 17.0518L3.92258 3.71846ZM12.5115 14.6644C11.6952 14.9837 10.8445 15.141 9.99999 15.141C7.526 15.141 4.99837 13.7904 3.44137 10.9744C4.12266 9.74221 4.98981 8.79055 5.95697 8.10987L7.74363 9.89655C7.58745 10.2229 7.49999 10.5885 7.49999 10.9744C7.49999 12.3551 8.61924 13.4744 9.99999 13.4744C10.3859 13.4744 10.7515 13.387 11.0778 13.2307L12.5115 14.6644Z" 
                fill="currentColor"/>
            <path d="M15.4602 12.554C15.8627 12.0912 16.232 11.565 16.5586 10.9744C15.0016 8.15836 12.4739 6.80771 9.99999 6.80771C9.90666 6.80771 9.81324 6.80964 9.71974 6.81349L8.23282 5.32653C8.81449 5.20314 9.40624 5.14104 9.99999 5.14104C13.2526 5.14104 16.4468 7.00467 18.2453 10.6017C18.3627 10.8363 18.3627 11.1125 18.2453 11.347C17.792 12.2537 17.25 13.0502 16.6407 13.7345L15.4602 12.554Z" 
                fill="currentColor"/>
        </symbol>
        <symbol id="loading" viewBox="0 0 42 17">
            <style>
                .dot {
                animation: flow 1.6s linear infinite;
                transform-box: fill-box;
                transform-origin: center;
                }

                .dot:nth-child(1) {
                animation-delay: 0s;
                }

                .dot:nth-child(2) {
                animation-delay: 0.6s;
                }

                .dot:nth-child(3) {
                animation-delay: 1s;
                }

                @keyframes flow {
                0%   { opacity: 1; }
                33%  { opacity: 0.6; }
                66%  { opacity: 0.3; }
                100% { opacity: 1; }
                }
            </style>
            <circle class="dot" cx="9"  cy="8.5" r="3.5" fill="currentColor" />
            <circle class="dot" cx="21" cy="8.5" r="3.5" fill="currentColor" />
            <circle class="dot" cx="33" cy="8.5" r="3.5" fill="currentColor" />
        </symbol>
        <symbol id="close" viewBox="0 0 20 20" fill="none">
            <path d="M10 11.1667L5.91667 15.25C5.76389 15.4028 5.56944 15.4792 5.33333 15.4792C5.09722 15.4792 4.90278 15.4028 4.75 15.25C4.59722 15.0972 4.52083 14.9028 4.52083 14.6667C4.52083 14.4306 4.59722 14.2361 4.75 14.0833L8.83333 10L4.75 5.91666C4.59722 5.76388 4.52083 5.56944 4.52083 5.33333C4.52083 5.09722 4.59722 4.90277 4.75 4.74999C4.90278 4.59722 5.09722 4.52083 5.33333 4.52083C5.56944 4.52083 5.76389 4.59722 5.91667 4.74999L10 8.83333L14.0833 4.74999C14.2361 4.59722 14.4306 4.52083 14.6667 4.52083C14.9028 4.52083 15.0972 4.59722 15.25 4.74999C15.4028 4.90277 15.4792 5.09722 15.4792 5.33333C15.4792 5.56944 15.4028 5.76388 15.25 5.91666L11.1667 10L15.25 14.0833C15.4028 14.2361 15.4792 14.4306 15.4792 14.6667C15.4792 14.9028 15.4028 15.0972 15.25 15.25C15.0972 15.4028 14.9028 15.4792 14.6667 15.4792C14.4306 15.4792 14.2361 15.4028 14.0833 15.25L10 11.1667Z" 
            fill="currentColor"/>
        </symbol>
        <symbol id="language" viewBox="0 0 20 20" fill="none">
            <path d="M10 18.3333C8.86111 18.3333 7.78472 18.1144 6.77083 17.6767C5.75694 17.2389 4.87166 16.6417 4.115 15.885C3.35833 15.1283 2.76111 14.2431 2.32333 13.2292C1.88555 12.2153 1.66666 11.1389 1.66666 10C1.66666 8.84723 1.88555 7.7675 2.32333 6.76084C2.76111 5.75417 3.35833 4.87223 4.115 4.11501C4.87166 3.35778 5.75694 2.76056 6.77083 2.32334C7.78472 1.88612 8.86111 1.66723 10 1.66667C11.1528 1.66667 12.2328 1.88556 13.24 2.32334C14.2472 2.76112 15.1289 3.35834 15.885 4.11501C16.6411 4.87167 17.2383 5.75362 17.6767 6.76084C18.115 7.76806 18.3339 8.84778 18.3333 10C18.3333 11.1389 18.1144 12.2153 17.6767 13.2292C17.2389 14.2431 16.6417 15.1286 15.885 15.8858C15.1283 16.6431 14.2464 17.2403 13.2392 17.6775C12.2319 18.1147 11.1522 18.3333 10 18.3333ZM10 16.625C10.3611 16.125 10.6736 15.6042 10.9375 15.0625C11.2014 14.5208 11.4167 13.9444 11.5833 13.3333H8.41666C8.58333 13.9444 8.79861 14.5208 9.0625 15.0625C9.32639 15.6042 9.63889 16.125 10 16.625ZM7.83333 16.2917C7.58333 15.8333 7.36472 15.3575 7.1775 14.8642C6.99027 14.3708 6.83389 13.8606 6.70833 13.3333H4.25C4.65278 14.0278 5.15639 14.6319 5.76083 15.1458C6.36528 15.6597 7.05611 16.0417 7.83333 16.2917ZM12.1667 16.2917C12.9444 16.0417 13.6356 15.6597 14.24 15.1458C14.8444 14.6319 15.3478 14.0278 15.75 13.3333H13.2917C13.1667 13.8611 13.0106 14.3717 12.8233 14.865C12.6361 15.3583 12.4172 15.8339 12.1667 16.2917ZM3.54166 11.6667H6.375C6.33333 11.3889 6.30222 11.1147 6.28166 10.8442C6.26111 10.5736 6.25055 10.2922 6.25 10C6.24944 9.70778 6.26 9.42667 6.28166 9.15667C6.30333 8.88667 6.33444 8.61223 6.375 8.33334H3.54166C3.47222 8.61112 3.42028 8.88556 3.38583 9.15667C3.35139 9.42778 3.33389 9.70889 3.33333 10C3.33278 10.2911 3.35028 10.5725 3.38583 10.8442C3.42139 11.1158 3.47333 11.39 3.54166 11.6667ZM8.04166 11.6667H11.9583C12 11.3889 12.0314 11.1147 12.0525 10.8442C12.0736 10.5736 12.0839 10.2922 12.0833 10C12.0828 9.70778 12.0722 9.42667 12.0517 9.15667C12.0311 8.88667 12 8.61223 11.9583 8.33334H8.04166C8 8.61112 7.96889 8.88556 7.94833 9.15667C7.92778 9.42778 7.91722 9.70889 7.91666 10C7.91611 10.2911 7.92666 10.5725 7.94833 10.8442C7.97 11.1158 8.00111 11.39 8.04166 11.6667ZM13.625 11.6667H16.4583C16.5278 11.3889 16.58 11.1147 16.615 10.8442C16.65 10.5736 16.6672 10.2922 16.6667 10C16.6661 9.70778 16.6489 9.42667 16.615 9.15667C16.5811 8.88667 16.5289 8.61223 16.4583 8.33334H13.625C13.6667 8.61112 13.6981 8.88556 13.7192 9.15667C13.7403 9.42778 13.7506 9.70889 13.75 10C13.7494 10.2911 13.7389 10.5725 13.7183 10.8442C13.6978 11.1158 13.6667 11.39 13.625 11.6667ZM13.2917 6.66667H15.75C15.3472 5.97223 14.8439 5.36806 14.24 4.85417C13.6361 4.34028 12.945 3.95834 12.1667 3.70834C12.4167 4.16667 12.6356 4.64251 12.8233 5.13584C13.0111 5.62917 13.1672 6.13945 13.2917 6.66667ZM8.41666 6.66667H11.5833C11.4167 6.05556 11.2014 5.47917 10.9375 4.93751C10.6736 4.39584 10.3611 3.87501 10 3.37501C9.63889 3.87501 9.32639 4.39584 9.0625 4.93751C8.79861 5.47917 8.58333 6.05556 8.41666 6.66667ZM4.25 6.66667H6.70833C6.83333 6.13889 6.98972 5.62834 7.1775 5.13501C7.36527 4.64167 7.58389 4.16612 7.83333 3.70834C7.05555 3.95834 6.36444 4.34028 5.76 4.85417C5.15555 5.36806 4.65222 5.97223 4.25 6.66667Z" 
            fill="currentColor"/>
        </symbol>
        <symbol id="selectArrow" viewBox='0 0 24 24'>\
            <path fill="currentColor" 
            d='M7.41 8.59 12 13.17l4.59-4.58L18 10l-6 6-6-6z'/>\
        </symbol>
    </defs>
</svg>